<svg width="19" height="19" viewBox="0 0 19 19" fill="none" xmlns="http://www.w3.org/2000/svg">
<g clip-path="url(#clip0_1_79)">
<path fill-rule="evenodd" clip-rule="evenodd" d="M9.45436 0.989746H9.54303C10.9981 0.989746 12.1508 0.989746 13.0525 1.11087C13.9803 1.23595 14.7316 1.49879 15.3246 2.09095C15.9167 2.68391 16.1796 3.4352 16.3047 4.36304C16.3862 4.96787 16.4123 5.68512 16.421 6.53141H16.6237C17.3884 6.53141 18.0091 7.15208 18.0091 7.91683V8.70849C18.0091 9.14391 17.8033 9.55558 17.4549 9.81683L16.4234 10.5903C16.4179 11.5656 16.3949 12.3795 16.3047 13.054C16.1796 13.9818 15.9167 14.7331 15.3246 15.326C15.1742 15.4765 15.0134 15.6055 14.8424 15.7163V16.6252C14.8424 16.9926 14.6965 17.345 14.4367 17.6048C14.1768 17.8646 13.8245 18.0106 13.457 18.0106H12.2695C11.9021 18.0106 11.5497 17.8646 11.2899 17.6048C11.0301 17.345 10.8841 16.9926 10.8841 16.6252V16.4225C10.4685 16.4272 10.0228 16.4272 9.54303 16.4272H9.45436C8.97461 16.4272 8.52811 16.4272 8.11328 16.4225V16.6252C8.11328 16.9926 7.96732 17.345 7.7075 17.6048C7.44769 17.8646 7.0953 18.0106 6.72786 18.0106H5.54036C5.17293 18.0106 4.82054 17.8646 4.56073 17.6048C4.30091 17.345 4.15495 16.9926 4.15495 16.6252V15.7163C3.98099 15.6035 3.81939 15.4727 3.67282 15.326C3.08066 14.7331 2.81782 13.9818 2.69274 13.054C2.60249 12.3795 2.57953 11.5656 2.57399 10.5903L1.54245 9.81683C1.19411 9.55558 0.988281 9.14391 0.988281 8.70849V7.91683C0.988281 7.15208 1.60895 6.53141 2.3737 6.53141H2.57557C2.58507 5.68512 2.6112 4.96787 2.69274 4.36304C2.81782 3.4352 3.08066 2.68391 3.67282 2.09095C4.26578 1.49879 5.01707 1.23595 5.94491 1.11087C6.8474 0.989746 7.99928 0.989746 9.45436 0.989746ZM2.57161 7.71891H2.3737C2.32121 7.71891 2.27087 7.73976 2.23375 7.77688C2.19663 7.814 2.17578 7.86434 2.17578 7.91683V8.70849C2.17578 8.73922 2.18293 8.76952 2.19668 8.79701C2.21042 8.82449 2.23037 8.84839 2.25495 8.86683L2.57161 9.10433V7.71891ZM3.76386 10.8856C3.77178 11.7042 3.79711 12.3565 3.86995 12.8964C3.97682 13.692 4.17791 14.1512 4.51278 14.4861C4.84766 14.821 5.30682 15.022 6.10324 15.1289C6.91707 15.2382 7.98899 15.2397 9.4987 15.2397C11.0084 15.2397 12.0803 15.2382 12.8949 15.1289C13.6906 15.022 14.1497 14.821 14.4846 14.4861C14.8195 14.1512 15.0206 13.692 15.1274 12.8956C15.2003 12.3573 15.2248 11.7042 15.2335 10.8856H3.76386ZM15.2383 9.69808H3.75911V7.91683C3.75911 6.42612 3.7607 5.36212 3.86599 4.55225H15.1314C15.2367 5.36212 15.2383 6.42612 15.2383 7.91683V9.69808ZM16.4258 9.10433L16.7424 8.86683C16.767 8.84839 16.787 8.82449 16.8007 8.79701C16.8145 8.76952 16.8216 8.73922 16.8216 8.70849V7.91683C16.8216 7.86434 16.8008 7.814 16.7636 7.77688C16.7265 7.73976 16.6762 7.71891 16.6237 7.71891H16.4258V9.10433ZM14.8037 3.36475C14.7199 3.20481 14.6123 3.05853 14.4846 2.93091C14.1497 2.59604 13.6906 2.39495 12.8942 2.28808C12.0803 2.17883 11.0084 2.17725 9.4987 2.17725C7.98899 2.17725 6.91707 2.17883 6.10245 2.28808C5.30682 2.39495 4.84766 2.59604 4.51278 2.93091C4.38515 3.0586 4.27759 3.20487 4.19374 3.36475H14.8037ZM5.34245 16.1977V16.6252C5.34245 16.7344 5.43111 16.8231 5.54036 16.8231H6.72786C6.78035 16.8231 6.8307 16.8022 6.86781 16.7651C6.90493 16.728 6.92578 16.6777 6.92578 16.6252V16.3908C6.5978 16.3761 6.27056 16.3478 5.94491 16.3061C5.7425 16.2794 5.54146 16.2432 5.34245 16.1977ZM12.0716 16.3908V16.6252C12.0716 16.7344 12.1603 16.8231 12.2695 16.8231H13.457C13.5095 16.8231 13.5599 16.8022 13.597 16.7651C13.6341 16.728 13.6549 16.6777 13.6549 16.6252V16.1977C13.456 16.2434 13.2549 16.2796 13.0525 16.3061C12.7268 16.3478 12.3996 16.3761 12.0716 16.3908ZM4.94661 12.6668C4.94661 12.5094 5.00917 12.3583 5.12052 12.247C5.23187 12.1356 5.38289 12.0731 5.54036 12.0731H6.72786C6.88534 12.0731 7.03636 12.1356 7.14771 12.247C7.25906 12.3583 7.32161 12.5094 7.32161 12.6668C7.32161 12.8243 7.25906 12.9753 7.14771 13.0867C7.03636 13.198 6.88534 13.2606 6.72786 13.2606H5.54036C5.38289 13.2606 5.23187 13.198 5.12052 13.0867C5.00917 12.9753 4.94661 12.8243 4.94661 12.6668ZM11.6758 12.6668C11.6758 12.5094 11.7383 12.3583 11.8497 12.247C11.961 12.1356 12.1121 12.0731 12.2695 12.0731H13.457C13.6145 12.0731 13.7655 12.1356 13.8769 12.247C13.9882 12.3583 14.0508 12.5094 14.0508 12.6668C14.0508 12.8243 13.9882 12.9753 13.8769 13.0867C13.7655 13.198 13.6145 13.2606 13.457 13.2606H12.2695C12.1121 13.2606 11.961 13.198 11.8497 13.0867C11.7383 12.9753 11.6758 12.8243 11.6758 12.6668Z" fill="#B8B8B8"/>
</g>
<defs>
<clipPath id="clip0_1_79">
<rect width="19" height="19" fill="white"/>
</clipPath>
</defs>
</svg>
