<svg width="19" height="19" viewBox="0 0 19 19" fill="none" xmlns="http://www.w3.org/2000/svg">
<path d="M11.082 17.4165H7.91536C4.92999 17.4165 3.43691 17.4165 2.50986 16.4887C1.58203 15.5616 1.58203 14.0685 1.58203 11.0832V9.49984C1.58203 6.51446 1.58203 5.02138 2.50986 4.09434C3.43691 3.1665 4.92999 3.1665 7.91536 3.1665H11.082C14.0674 3.1665 15.5605 3.1665 16.4875 4.09434C17.4154 5.02138 17.4154 6.51446 17.4154 9.49984V11.0832C17.4154 14.0685 17.4154 15.5616 16.4875 16.4887C15.9706 17.0064 15.2779 17.2352 14.2487 17.3358M5.54036 3.1665V1.979M13.457 3.1665V1.979M17.0195 7.12484H8.50911M1.58203 7.12484H4.64974" stroke="#B8B8B8" stroke-width="1.5" stroke-linecap="round"/>
<path d="M14.25 13.4583C14.25 13.6683 14.1666 13.8697 14.0181 14.0181C13.8697 14.1666 13.6683 14.25 13.4583 14.25C13.2484 14.25 13.047 14.1666 12.8985 14.0181C12.7501 13.8697 12.6667 13.6683 12.6667 13.4583C12.6667 13.2484 12.7501 13.047 12.8985 12.8985C13.047 12.7501 13.2484 12.6667 13.4583 12.6667C13.6683 12.6667 13.8697 12.7501 14.0181 12.8985C14.1666 13.047 14.25 13.2484 14.25 13.4583ZM14.25 10.2917C14.25 10.5016 14.1666 10.703 14.0181 10.8515C13.8697 10.9999 13.6683 11.0833 13.4583 11.0833C13.2484 11.0833 13.047 10.9999 12.8985 10.8515C12.7501 10.703 12.6667 10.5016 12.6667 10.2917C12.6667 10.0817 12.7501 9.88034 12.8985 9.73187C13.047 9.58341 13.2484 9.5 13.4583 9.5C13.6683 9.5 13.8697 9.58341 14.0181 9.73187C14.1666 9.88034 14.25 10.0817 14.25 10.2917ZM10.2917 13.4583C10.2917 13.6683 10.2083 13.8697 10.0598 14.0181C9.91133 14.1666 9.70996 14.25 9.5 14.25C9.29004 14.25 9.08867 14.1666 8.94021 14.0181C8.79174 13.8697 8.70833 13.6683 8.70833 13.4583C8.70833 13.2484 8.79174 13.047 8.94021 12.8985C9.08867 12.7501 9.29004 12.6667 9.5 12.6667C9.70996 12.6667 9.91133 12.7501 10.0598 12.8985C10.2083 13.047 10.2917 13.2484 10.2917 13.4583ZM10.2917 10.2917C10.2917 10.5016 10.2083 10.703 10.0598 10.8515C9.91133 10.9999 9.70996 11.0833 9.5 11.0833C9.29004 11.0833 9.08867 10.9999 8.94021 10.8515C8.79174 10.703 8.70833 10.5016 8.70833 10.2917C8.70833 10.0817 8.79174 9.88034 8.94021 9.73187C9.08867 9.58341 9.29004 9.5 9.5 9.5C9.70996 9.5 9.91133 9.58341 10.0598 9.73187C10.2083 9.88034 10.2917 10.0817 10.2917 10.2917ZM6.33333 13.4583C6.33333 13.6683 6.24993 13.8697 6.10146 14.0181C5.95299 14.1666 5.75163 14.25 5.54167 14.25C5.3317 14.25 5.13034 14.1666 4.98187 14.0181C4.83341 13.8697 4.75 13.6683 4.75 13.4583C4.75 13.2484 4.83341 13.047 4.98187 12.8985C5.13034 12.7501 5.3317 12.6667 5.54167 12.6667C5.75163 12.6667 5.95299 12.7501 6.10146 12.8985C6.24993 13.047 6.33333 13.2484 6.33333 13.4583ZM6.33333 10.2917C6.33333 10.5016 6.24993 10.703 6.10146 10.8515C5.95299 10.9999 5.75163 11.0833 5.54167 11.0833C5.3317 11.0833 5.13034 10.9999 4.98187 10.8515C4.83341 10.703 4.75 10.5016 4.75 10.2917C4.75 10.0817 4.83341 9.88034 4.98187 9.73187C5.13034 9.58341 5.3317 9.5 5.54167 9.5C5.75163 9.5 5.95299 9.58341 6.10146 9.73187C6.24993 9.88034 6.33333 10.0817 6.33333 10.2917Z" fill="#B8B8B8"/>
</svg>
