<svg width="46" height="45" viewBox="0 0 46 45" fill="none" xmlns="http://www.w3.org/2000/svg">
<path fill-rule="evenodd" clip-rule="evenodd" d="M32.375 5.15671C31.018 5.15627 29.6834 5.50238 28.4976 6.16223C27.3118 6.82209 26.3142 7.77382 25.5993 8.92723C24.8843 10.0806 24.4758 11.3975 24.4124 12.753C24.349 14.1086 24.6328 15.4578 25.2369 16.673C25.5369 17.273 25.6588 18.0042 25.4619 18.7392L24.9875 20.513L26.7612 20.0386C27.4544 19.8593 28.1892 19.9393 28.8275 20.2636C29.9032 20.7974 31.0857 21.0812 32.2866 21.0938C33.4874 21.1063 34.6756 20.8473 35.7622 20.336C36.8489 19.8248 37.806 19.0746 38.5619 18.1414C39.3178 17.2082 39.853 16.1163 40.1276 14.9472C40.4021 13.7781 40.4088 12.562 40.1473 11.3899C39.8857 10.2178 39.3627 9.12002 38.6171 8.17853C37.8716 7.23704 36.923 6.47623 35.842 5.95296C34.7611 5.42968 33.5759 5.15748 32.375 5.15671ZM21.5938 13.1255C21.5943 10.7809 22.3591 8.50047 23.7722 6.62967C25.1853 4.75888 27.1698 3.39972 29.4248 2.75817C31.6799 2.11662 34.0826 2.22765 36.2689 3.07442C38.4552 3.9212 40.3058 5.45758 41.5404 7.45072C42.775 9.44386 43.3262 11.7851 43.1105 14.1197C42.8949 16.4543 41.924 18.655 40.3452 20.3882C38.7663 22.1214 36.6655 23.2927 34.3611 23.7247C32.0567 24.1566 29.6743 23.8255 27.575 22.7817C27.5515 22.7694 27.5262 22.7612 27.5 22.7573H27.4869L25.4019 23.3142C24.9569 23.4335 24.4883 23.4336 24.0433 23.3145C23.5982 23.1953 23.1924 22.9611 22.8665 22.6355C22.5406 22.3098 22.3062 21.9041 22.1868 21.4591C22.0674 21.0141 22.0672 20.5455 22.1863 20.1005L22.745 18.0136V18.0005C22.7405 17.9742 22.7317 17.9488 22.7188 17.9255C21.9768 16.4343 21.5916 14.791 21.5938 13.1255ZM7.47125 7.67296C9.77 5.25421 13.5725 5.70608 15.4738 8.39483L17.8363 11.738C19.3569 13.8886 19.2294 16.8755 17.4144 18.788L16.955 19.2698C16.955 19.2736 16.955 19.2773 16.9513 19.2811C16.9269 19.3505 16.8669 19.5661 16.9269 19.9786C17.0525 20.8336 17.7106 22.568 20.3881 25.3861C23.0731 28.2136 24.7006 28.8811 25.4563 29.003C25.6383 29.0438 25.8276 29.0393 26.0075 28.9898L26.7725 28.1836C28.4113 26.4586 30.965 26.1192 33.0256 27.3042L36.6069 29.3667C39.6688 31.1292 40.3813 35.4398 37.9344 38.0161L35.2719 40.8192C34.4413 41.6948 33.3069 42.443 31.9062 42.5817C28.4862 42.9192 20.5644 42.4786 12.26 33.7355C4.50875 25.5755 3.03688 18.4786 2.85125 15.0117C2.75938 13.298 3.5225 11.8298 4.5275 10.7723L7.47125 7.67296ZM13.1769 10.0167C12.2169 8.65921 10.49 8.57858 9.50938 9.60983L6.56563 12.7092C5.94688 13.3636 5.61875 14.1117 5.66 14.8617C5.81 17.693 7.03063 24.1467 14.2981 31.7986C21.9181 39.8217 28.94 40.0486 31.6306 39.7823C32.1613 39.7298 32.7088 39.4336 33.2319 38.8823L35.8944 36.0792C37.0456 34.8698 36.7438 32.6892 35.2044 31.8042L31.6231 29.7417C30.6613 29.1886 29.5344 29.3592 28.8125 30.1205L27.9594 31.0205L26.9394 30.0511C27.9575 31.0205 27.9575 31.0205 27.9556 31.0223L27.9538 31.0261L27.9481 31.0317L27.935 31.043L27.9088 31.0692C27.8301 31.1466 27.7447 31.2168 27.6538 31.2792C27.5038 31.3861 27.305 31.5042 27.0519 31.6017C26.5344 31.808 25.8519 31.9167 25.0063 31.7798C23.36 31.5117 21.2038 30.3305 18.35 27.323C15.485 24.308 14.3881 22.0598 14.1444 20.3855C14.0188 19.5342 14.1181 18.8536 14.3019 18.338C14.4039 18.0506 14.5493 17.7806 14.7331 17.5373L14.7894 17.468L14.8156 17.4398L14.8269 17.4286L14.8325 17.423L14.8363 17.4192C14.8363 17.4192 14.8381 17.4173 15.8581 18.3848L14.8381 17.4173L15.3763 16.8511C16.2106 15.9698 16.3325 14.4811 15.5413 13.3636L13.1769 10.0167Z" fill="#94CA21"/>
</svg>
