<svg width="24" height="24" viewBox="0 0 24 24" fill="none" xmlns="http://www.w3.org/2000/svg">
<path d="M8.60175 3.75C5.9385 3.75 3.75 5.9355 3.75 8.60175V15.3983C3.75 18.0615 5.9355 20.25 8.60175 20.25H15.3983C18.0615 20.25 20.25 18.0645 20.25 15.3983V8.6025C20.25 5.9385 18.0645 3.75 15.3983 3.75H8.60175ZM8.60175 5.25H15.3983C15.8386 5.24941 16.2747 5.3357 16.6816 5.50393C17.0885 5.67216 17.4583 5.91903 17.7696 6.23038C18.081 6.54174 18.3278 6.91147 18.4961 7.31839C18.6643 7.72531 18.7506 8.16143 18.75 8.60175V15.3983C18.7506 15.8386 18.6643 16.2747 18.4961 16.6816C18.3278 17.0885 18.081 17.4583 17.7696 17.7696C17.4583 18.081 17.0885 18.3278 16.6816 18.4961C16.2747 18.6643 15.8386 18.7506 15.3983 18.75H8.6025C8.16211 18.7507 7.72592 18.6645 7.31891 18.4963C6.9119 18.3281 6.54208 18.0812 6.23065 17.7699C5.91921 17.4585 5.67228 17.0888 5.504 16.6818C5.33572 16.2748 5.24941 15.8386 5.25 15.3983V8.6025C5.24931 8.16211 5.33553 7.72592 5.50371 7.31891C5.6719 6.9119 5.91875 6.54208 6.23012 6.23065C6.54148 5.91921 6.91125 5.67228 7.31822 5.504C7.72519 5.33572 8.16136 5.24941 8.60175 5.25ZM16.4295 6.891C16.3402 6.8906 16.2516 6.90791 16.169 6.94192C16.0864 6.97592 16.0113 7.02596 15.9481 7.08914C15.885 7.15231 15.8349 7.22738 15.8009 7.31C15.7669 7.39262 15.7496 7.48116 15.75 7.5705C15.75 7.9485 16.0515 8.25 16.4295 8.25C16.5189 8.2505 16.6075 8.23326 16.6902 8.1993C16.7729 8.16534 16.8481 8.11532 16.9114 8.05213C16.9746 7.98895 17.0247 7.91385 17.0588 7.83118C17.0928 7.74851 17.1101 7.65991 17.1097 7.5705C17.1101 7.48109 17.0928 7.39249 17.0588 7.30982C17.0247 7.22715 16.9746 7.15205 16.9114 7.08887C16.8481 7.02568 16.7729 6.97566 16.6902 6.9417C16.6075 6.90773 16.5189 6.8905 16.4295 6.891ZM12 7.5C9.525 7.5 7.5 9.525 7.5 12C7.5 14.475 9.525 16.5 12 16.5C14.475 16.5 16.5 14.475 16.5 12C16.5 9.525 14.475 7.5 12 7.5ZM12 9C13.6672 9 15 10.3327 15 12C15 13.6672 13.6672 15 12 15C10.3327 15 9 13.6672 9 12C9 10.3327 10.3327 9 12 9Z" fill="#222222"/>
</svg>
