<svg width="24" height="24" viewBox="0 0 24 24" fill="none" xmlns="http://www.w3.org/2000/svg">
<path d="M6.48225 3C6.22207 2.9998 5.9644 3.05087 5.72396 3.15027C5.48352 3.24968 5.26502 3.39548 5.08094 3.57935C4.89686 3.76322 4.75081 3.98156 4.65113 4.22188C4.55145 4.46221 4.5001 4.71982 4.5 4.98C4.5 6.075 5.38725 6.9825 6.48 6.9825C7.57425 6.9825 8.46225 6.075 8.46225 4.9815C8.46245 4.72136 8.41138 4.46372 8.31196 4.22333C8.21255 3.98293 8.06673 3.76448 7.88285 3.58046C7.69897 3.39644 7.48063 3.25046 7.24031 3.15086C6.99999 3.05126 6.74239 3 6.48225 3ZM16.1512 8.25C14.487 8.25 13.5353 9.12 13.0778 9.9855H13.0297V8.48325H9.75V19.5H13.1677V14.0468C13.1677 12.6098 13.2758 11.2208 15.054 11.2208C16.8068 11.2208 16.8323 12.8595 16.8323 14.1375V19.5H20.25V13.449C20.25 10.488 19.6132 8.25 16.1512 8.25ZM4.77225 8.4825V19.5H8.19225V8.4825H4.77225Z" fill="#222222"/>
</svg>
