<svg width="19" height="19" viewBox="0 0 19 19" fill="none" xmlns="http://www.w3.org/2000/svg">
<g clip-path="url(#clip0_1_85)">
<path fill-rule="evenodd" clip-rule="evenodd" d="M13.7626 2.31658C12.7334 2.17883 11.3813 2.17725 9.4987 2.17725C7.61611 2.17725 6.26395 2.17883 5.23478 2.31658C4.22224 2.45275 3.61186 2.71241 3.16061 3.16287C2.71016 3.61412 2.45128 4.2237 2.31511 5.23625C2.17736 6.26541 2.17578 7.61758 2.17578 9.50016C2.17578 11.3827 2.17736 12.7349 2.31511 13.7641C2.45128 14.7766 2.71095 15.387 3.16141 15.8382C3.61266 16.2887 4.22224 16.5476 5.23478 16.6837C6.26395 16.8215 7.61611 16.8231 9.4987 16.8231C11.3813 16.8231 12.7334 16.8215 13.7626 16.6837C14.7752 16.5476 15.3855 16.2879 15.8368 15.8375C16.2872 15.3862 16.5461 14.7766 16.6823 13.7641C16.82 12.7349 16.8216 11.3827 16.8216 9.50016C16.8216 7.61758 16.82 6.26541 16.6823 5.23625C16.5461 4.2237 16.2864 3.61333 15.836 3.16208C15.3847 2.71162 14.7752 2.45275 13.7626 2.31658ZM13.9209 1.14016C15.0649 1.29375 15.9674 1.61516 16.6759 2.32291C17.3845 3.03145 17.7051 3.93395 17.8587 5.07791C18.0091 6.19495 18.0091 7.62708 18.0091 9.45504V9.54529C18.0091 11.3732 18.0091 12.8054 17.8587 13.9232C17.7051 15.0664 17.3837 15.9689 16.6759 16.6774C15.9674 17.386 15.0649 17.7066 13.9209 17.8602C12.8039 18.0106 11.3718 18.0106 9.54382 18.0106H9.45357C7.62561 18.0106 6.19349 18.0106 5.07566 17.8602C3.93249 17.7066 3.02999 17.3852 2.32145 16.6774C1.61291 15.9689 1.29228 15.0664 1.1387 13.9224C0.988281 12.8054 0.988281 11.3732 0.988281 9.54529V9.45504C0.988281 7.62708 0.988281 6.19495 1.1387 5.07712C1.29228 3.93395 1.6137 3.03145 2.32145 2.32291C3.02999 1.61437 3.93249 1.29375 5.07645 1.14016C6.19349 0.989746 7.62561 0.989746 9.45357 0.989746H9.54382C11.3718 0.989746 12.8031 0.989746 13.9209 1.14016Z" fill="#B8B8B8"/>
<path fill-rule="evenodd" clip-rule="evenodd" d="M12.2997 5.03905C12.5321 4.94468 12.7872 4.92091 13.0331 4.97072C13.279 5.02052 13.5047 5.1417 13.6821 5.31909C13.8595 5.49649 13.9807 5.72224 14.0305 5.96812C14.0803 6.214 14.0566 6.46911 13.9622 6.70155L11.1811 13.9572C11.0855 14.2126 10.9157 14.4335 10.6934 14.5915C10.4712 14.7495 10.2068 14.8374 9.93418 14.8438C9.4196 14.8549 8.87493 14.5628 8.6881 13.9493L7.8521 11.1966C7.84876 11.185 7.84249 11.1743 7.83389 11.1658C7.82545 11.1576 7.81512 11.1516 7.80381 11.1483L5.05118 10.3123C4.43764 10.1255 4.14472 9.58005 4.1566 9.06547C4.16317 8.793 4.25112 8.52874 4.40914 8.30667C4.56715 8.0846 4.788 7.9149 5.04326 7.81939L12.2997 5.03905ZM12.8024 6.1371C12.7758 6.1326 12.7485 6.13619 12.724 6.14739L5.46839 8.92772C5.43296 8.93907 5.40195 8.96118 5.37967 8.99098C5.35739 9.02078 5.34496 9.05678 5.3441 9.09397C5.3428 9.11439 5.34747 9.13475 5.35756 9.15255C5.35993 9.15651 5.36626 9.1668 5.39714 9.1763L8.14897 10.0123C8.55272 10.135 8.86543 10.4477 8.98814 10.8515L9.82414 13.6041C9.83364 13.6334 9.84393 13.6405 9.8471 13.6429C9.85501 13.6476 9.87401 13.6571 9.90726 13.6563C9.94418 13.6552 9.97983 13.6426 10.0093 13.6203C10.0388 13.5981 10.0607 13.5672 10.0719 13.5321L12.8523 6.27564C12.8633 6.25138 12.8669 6.22436 12.8626 6.19805C12.8594 6.18319 12.8521 6.16954 12.8414 6.15874C12.8308 6.14793 12.8172 6.14042 12.8024 6.1371Z" fill="#B8B8B8"/>
</g>
<defs>
<clipPath id="clip0_1_85">
<rect width="19" height="19" fill="white"/>
</clipPath>
</defs>
</svg>
