<svg width="110" height="30" viewBox="0 0 110 30" fill="none" xmlns="http://www.w3.org/2000/svg">
<path d="M9.972 14.76C9.972 14.256 10.548 13.848 11.7 13.536C12.852 13.224 14.1 13.068 15.444 13.068C16.788 13.068 17.808 13.608 18.504 14.688C19.224 15.768 19.584 16.968 19.584 18.288C19.584 19.608 19.02 21.888 17.892 25.128C16.788 28.344 15.828 29.952 15.012 29.952C14.676 29.952 14.388 29.844 14.148 29.628C13.932 29.436 13.824 29.184 13.824 28.872C13.824 27.144 14.304 24.672 15.264 21.456C14.136 22.896 12.9 24.06 11.556 24.948C10.236 25.836 8.868 26.28 7.452 26.28C6.06 26.28 4.596 25.668 3.06 24.444C1.524 23.22 0.756 21.876 0.756 20.412C0.756 17.82 1.524 14.952 3.06 11.808C4.596 8.64 6.54 5.94 8.892 3.708C11.244 1.476 13.464 0.36 15.552 0.36C16.272 0.36 17.016 0.924 17.784 2.052C18.576 3.18 18.972 4.212 18.972 5.148C18.972 5.58 18.816 5.796 18.504 5.796C18.456 5.796 18.228 5.748 17.82 5.652C17.412 5.556 16.908 5.508 16.308 5.508C14.7 5.508 13.056 6.336 11.376 7.992C9.696 9.624 8.328 11.64 7.272 14.04C6.216 16.44 5.688 18.696 5.688 20.808C5.688 21.432 6.096 21.744 6.912 21.744C8.04 21.744 9.42 21.24 11.052 20.232C12.708 19.224 13.98 18.096 14.868 16.848C14.34 16.872 13.692 16.884 12.924 16.884C12.18 16.884 11.496 16.656 10.872 16.2C10.272 15.744 9.972 15.264 9.972 14.76ZM33.0365 20.34C34.4285 19.092 35.6405 17.532 36.6725 15.66C37.7045 13.764 38.2205 11.952 38.2205 10.224C38.2205 8.496 38.0045 7.164 37.5725 6.228C37.1405 5.292 36.5405 4.824 35.7725 4.824C35.0045 4.824 33.9965 5.52 32.7485 6.912C31.5245 8.28 30.4085 10.08 29.4005 12.312C28.4165 14.544 27.9245 16.68 27.9245 18.72C27.9245 19.752 28.0685 20.592 28.3565 21.24C28.6445 21.864 29.0045 22.176 29.4365 22.176C30.4445 22.176 31.6445 21.564 33.0365 20.34ZM29.4725 26.532C27.6965 26.532 26.1125 25.668 24.7205 23.94C23.3285 22.188 22.6325 20.448 22.6325 18.72C22.6325 16.512 23.0525 14.256 23.8925 11.952C24.7325 9.624 25.7765 7.62 27.0245 5.94C28.2965 4.236 29.6885 2.844 31.2005 1.764C32.7125 0.659999 34.1045 0.107999 35.3765 0.107999C37.7045 0.107999 39.6125 1.104 41.1005 3.096C42.5885 5.064 43.3325 7.284 43.3325 9.756C43.3325 12.228 42.7085 14.736 41.4605 17.28C40.2125 19.8 38.4845 21.972 36.2765 23.796C34.0925 25.62 31.8245 26.532 29.4725 26.532Z" fill="#94CA21"/>
<path d="M59.5735 0.107999C60.2455 0.107999 60.9775 0.707999 61.7695 1.908C62.5615 3.084 62.9575 4.056 62.9575 4.824C62.9575 5.592 62.8015 5.976 62.4895 5.976C62.3455 5.976 62.0335 5.928 61.5535 5.832C61.0975 5.736 60.7015 5.688 60.3655 5.688C59.1655 5.688 57.7615 6.456 56.1535 7.992C54.5455 9.528 53.1655 11.364 52.0135 13.5C50.8855 15.636 50.3215 17.484 50.3215 19.044C50.3215 19.812 50.4415 20.376 50.6815 20.736C50.9215 21.072 51.3535 21.24 51.9775 21.24C53.6335 21.24 55.3135 20.988 57.0175 20.484C58.7215 19.98 60.1255 19.476 61.2295 18.972C62.3335 18.444 62.9575 18.18 63.1015 18.18C63.2695 18.18 63.4255 18.324 63.5695 18.612C63.7375 18.876 63.8215 19.2 63.8215 19.584C63.8215 20.4 63.1735 21.372 61.8775 22.5C60.5815 23.604 59.0095 24.552 57.1615 25.344C55.3375 26.136 53.6815 26.532 52.1935 26.532C50.7055 26.532 49.1335 25.632 47.4775 23.832C45.8455 22.032 45.0295 20.316 45.0295 18.684C45.0295 16.404 45.7615 13.812 47.2255 10.908C48.6895 7.98 50.5735 5.448 52.8775 3.312C55.2055 1.176 57.4375 0.107999 59.5735 0.107999ZM84.3123 13.032C85.2723 13.032 85.9563 13.128 86.3643 13.32C86.7963 13.488 87.0123 13.812 87.0123 14.292C87.0123 14.94 85.9683 15.6 83.8803 16.272C83.9283 18.096 83.9523 19.848 83.9523 21.528C83.9523 23.184 83.8203 24.432 83.5563 25.272C83.2923 26.088 82.8723 26.496 82.2963 26.496C81.7203 26.496 81.2643 26.208 80.9283 25.632C80.6163 25.032 80.3523 24.06 80.1363 22.716C79.9443 21.372 79.7403 19.596 79.5243 17.388C77.0763 17.94 75.3123 18.384 74.2323 18.72C72.3603 23.904 71.1123 26.496 70.4883 26.496C69.9843 26.496 69.3123 26.16 68.4723 25.488C67.6563 24.816 67.2483 24.12 67.2483 23.4C67.2483 22.992 67.7163 21.72 68.6523 19.584C68.2443 19.32 67.8843 18.948 67.5723 18.468C67.2843 17.964 67.1403 17.484 67.1403 17.028C67.1403 16.236 68.3283 15.48 70.7043 14.76C70.8963 14.28 71.0883 13.74 71.2803 13.14C71.4963 12.516 72.0123 11.076 72.8283 8.82C73.6683 6.564 74.3283 4.68 74.8083 3.168C75.0243 2.448 75.7683 1.776 77.0403 1.152C78.3363 0.527999 79.3443 0.215999 80.0643 0.215999C80.9043 0.215999 81.6483 1.38 82.2963 3.708C82.9683 6.036 83.4363 9.144 83.7003 13.032H84.3123ZM75.9963 13.644C76.7163 13.548 77.7603 13.428 79.1283 13.284C79.0563 12.588 78.9363 11.4 78.7683 9.72C78.6243 8.04 78.5163 6.828 78.4443 6.084C78.0363 7.428 77.2203 9.948 75.9963 13.644ZM109.076 25.236C109.076 26.22 108.392 26.712 107.024 26.712C105.152 26.712 103.184 25.74 101.12 23.796C99.0801 21.852 97.6281 19.824 96.7641 17.712C96.3801 18.864 96.1161 19.644 95.9721 20.052C95.8281 20.46 95.6121 21.108 95.3241 21.996C95.0361 22.884 94.8081 23.544 94.6401 23.976C94.4961 24.408 94.3281 24.864 94.1361 25.344C93.7761 26.256 93.4281 26.712 93.0921 26.712C92.5401 26.712 91.8681 26.256 91.0761 25.344C90.3081 24.408 89.9241 23.652 89.9241 23.076C89.9241 22.5 90.2001 21.432 90.7521 19.872C92.3841 15.096 93.3201 10.74 93.5601 6.804C93.1041 6.444 92.6961 5.94 92.3361 5.292C91.9761 4.644 91.7961 4.104 91.7961 3.672C91.7961 2.952 92.7201 2.196 94.5681 1.404C96.4401 0.611999 98.5881 0.215999 101.012 0.215999C103.46 0.215999 105.5 0.791999 107.132 1.944C108.764 3.096 109.58 4.596 109.58 6.444C109.58 7.812 109.172 9.132 108.356 10.404C107.564 11.652 106.688 12.636 105.728 13.356C104.792 14.052 103.916 14.688 103.1 15.264C102.308 15.84 101.912 16.212 101.912 16.38C101.912 16.956 102.104 17.508 102.488 18.036C102.872 18.54 103.412 19.14 104.108 19.836C104.804 20.508 105.404 21.084 105.908 21.564C106.412 22.02 106.82 22.404 107.132 22.716C107.468 23.028 107.792 23.352 108.104 23.688C108.752 24.312 109.076 24.828 109.076 25.236ZM104.036 6.804C104.036 5.796 103.052 5.292 101.084 5.292C100.148 5.292 99.0321 5.556 97.7361 6.084C98.3361 6.996 98.6361 7.836 98.6361 8.604C98.6361 9.996 98.4441 11.532 98.0601 13.212C98.3241 13.02 98.8161 12.684 99.5361 12.204C100.256 11.7 100.808 11.304 101.192 11.016C101.6 10.704 102.056 10.308 102.56 9.828C103.544 8.892 104.036 7.884 104.036 6.804Z" fill="#222222"/>
</svg>
