<svg width="46" height="45" viewBox="0 0 46 45" fill="none" xmlns="http://www.w3.org/2000/svg">
<path d="M28.736 19.6879C28.9846 19.4094 29.1124 19.0436 29.0913 18.6709C29.0702 18.2981 28.9019 17.949 28.6235 17.7004C28.345 17.4518 27.9791 17.3239 27.6064 17.345C27.2337 17.3661 26.8846 17.5344 26.636 17.8129L20.9903 24.1391L19.3591 22.3129C19.1098 22.0374 18.7616 21.8718 18.3906 21.8522C18.0195 21.8326 17.6558 21.9606 17.3789 22.2083C17.102 22.456 16.9343 22.8033 16.9126 23.1742C16.8908 23.5451 17.0167 23.9095 17.2628 24.1879L19.9403 27.1879C20.0722 27.3357 20.2339 27.4539 20.4147 27.5349C20.5955 27.6158 20.7913 27.6577 20.9894 27.6577C21.1875 27.6577 21.3833 27.6158 21.5641 27.5349C21.7449 27.4539 21.9065 27.3357 22.0385 27.1879L28.736 19.6879Z" fill="#94CA21"/>
<path fill-rule="evenodd" clip-rule="evenodd" d="M23 2.34375C21.2412 2.34375 19.5631 2.91938 16.8556 3.84563L15.4925 4.31438C12.7156 5.26313 10.5706 5.99812 9.03687 6.62063C8.26437 6.93375 7.59875 7.23938 7.06437 7.54875C6.54875 7.84875 6.03312 8.22187 5.6825 8.7225C5.33562 9.21562 5.15563 9.82312 5.04313 10.41C4.925 11.0175 4.85563 11.7469 4.80875 12.585C4.71875 14.2463 4.71875 16.5263 4.71875 19.4813V22.4831C4.71875 33.9225 13.3587 39.4069 18.4962 41.6531L18.5469 41.6737C19.1844 41.9531 19.7844 42.2137 20.4725 42.39C21.1981 42.5775 21.9706 42.6562 23 42.6562C24.0312 42.6562 24.8 42.5775 25.5275 42.39C26.2156 42.2137 26.8156 41.9531 27.4513 41.6737L27.5037 41.6531C32.6413 39.4069 41.2812 33.9225 41.2812 22.4831V19.4813C41.2812 16.5263 41.2812 14.2463 41.1912 12.5831C41.161 11.8538 41.0828 11.1272 40.9569 10.4081C40.8444 9.82313 40.6644 9.21562 40.3194 8.72062C39.9669 8.22188 39.4513 7.84875 38.9356 7.54875C38.2999 7.195 37.6409 6.88491 36.9631 6.62063C35.4294 5.99812 33.2844 5.26313 30.5075 4.31438L29.1444 3.84563C26.4369 2.91938 24.7569 2.34375 23 2.34375ZM17.525 6.58875C20.5531 5.55375 21.7663 5.15625 23 5.15625C24.2337 5.15625 25.4469 5.55375 28.475 6.58875L29.5475 6.95625C32.3844 7.9275 34.4525 8.63625 35.9037 9.225C36.6294 9.52125 37.1544 9.76875 37.5238 9.9825C37.7056 10.0875 37.8312 10.1737 37.9137 10.2431C37.985 10.2994 38.0131 10.3331 38.0169 10.3369C38.0414 10.381 38.0615 10.4275 38.0769 10.4756C38.1144 10.5806 38.1556 10.7306 38.195 10.9406C38.2964 11.5347 38.3591 12.1347 38.3825 12.7369C38.4688 14.3138 38.4688 16.515 38.4688 19.5319V22.4831C38.4688 32.1863 31.2125 36.9637 26.3769 39.075C25.6812 39.3787 25.2781 39.5513 24.83 39.6656C24.4025 39.7763 23.8813 39.8438 23 39.8438C22.1187 39.8438 21.5975 39.7763 21.17 39.6656C20.72 39.5531 20.3188 39.3787 19.6231 39.075C14.7856 36.9619 7.53125 32.1863 7.53125 22.4831V19.5319C7.53125 16.515 7.53125 14.3138 7.6175 12.7369C7.64092 12.1347 7.70356 11.5347 7.805 10.9406C7.84437 10.7306 7.88563 10.5806 7.92313 10.4756C7.95688 10.3819 7.97937 10.3444 7.98312 10.3369C8.0144 10.3024 8.04894 10.271 8.08625 10.2431C8.20904 10.1454 8.33946 10.0576 8.47625 9.98063C8.84563 9.76687 9.37063 9.52125 10.0963 9.22687C11.5475 8.63625 13.6156 7.9275 16.4525 6.95813L17.5269 6.58875H17.525Z" fill="#94CA21"/>
</svg>
