<svg width="230" height="203" viewBox="0 0 230 203" fill="none" xmlns="http://www.w3.org/2000/svg">
<path d="M59.5861 34.2647L48.4413 67.6499H101.625V16.9125H83.7051C78.3693 16.9094 73.1679 18.5839 68.8387 21.6985C64.5095 24.8131 61.2723 29.2097 59.5861 34.2647ZM42.818 84.5624L42.7503 84.7315L38.2449 85.8477L36.1785 86.3551C30.6801 87.7285 25.7995 90.8982 22.313 95.3602C18.8265 99.8222 16.9343 105.32 16.9375 110.98V139.528C16.9375 142.234 17.7844 144.771 19.2579 146.834C22.2997 138.079 28.1365 130.564 35.8714 125.444C43.6063 120.323 52.8112 117.881 62.0713 118.492C71.3315 119.103 80.1345 122.733 87.1275 128.825C94.1205 134.917 98.9164 143.134 100.778 152.212H170.222C172.072 143.125 176.862 134.896 183.856 128.794C190.85 122.693 199.659 119.056 208.926 118.445C218.193 117.833 227.404 120.281 235.141 125.411C242.878 130.541 248.711 138.068 251.742 146.834C253.256 144.698 254.067 142.145 254.062 139.528V119.013C254.064 113.42 252.215 107.984 248.803 103.549C245.391 99.1139 240.606 95.9292 235.194 94.49L197.915 84.5624H42.818ZM184.161 67.6499L163.176 29.9689C160.978 26.0157 157.762 22.7209 153.861 20.4253C149.96 18.1298 145.516 16.917 140.988 16.9125H118.562V67.6499H184.161ZM271 139.528C271 145.202 269.367 150.757 266.295 155.531C263.223 160.304 258.842 164.095 253.673 166.453C252.317 176.348 247.496 185.444 240.066 192.129C232.635 198.815 223.074 202.658 213.078 202.978C203.081 203.298 193.293 200.075 185.449 193.878C177.605 187.682 172.21 178.913 170.222 169.125H100.778C98.7896 178.913 93.3954 187.682 85.5512 193.878C77.707 200.075 67.9193 203.298 57.9225 202.978C47.9256 202.658 38.3649 198.815 30.9344 192.129C23.5039 185.444 18.6834 176.348 17.3271 166.453C12.158 164.095 7.77652 160.304 4.70452 155.531C1.63251 150.757 -0.000502685 145.202 1.16073e-07 139.528V110.98C-0.00035105 101.991 2.86806 93.2365 8.18889 85.9862C13.5097 78.736 21.0061 73.3677 29.5898 70.6603L43.5294 28.9034C46.3413 20.4853 51.7345 13.164 58.945 7.97651C66.1556 2.78905 74.818 -0.00154418 83.7051 1.01295e-06H140.971C148.524 -0.00164967 155.94 2.01417 162.451 5.83845C168.961 9.66273 174.328 15.1562 177.996 21.7494L204.114 68.7154L239.564 78.1526C248.581 80.5528 256.551 85.8599 262.235 93.249C267.92 100.638 271.001 109.695 271 119.013V139.528ZM59.2812 135.3C52.5431 135.3 46.0809 137.973 41.3163 142.73C36.5517 147.488 33.875 153.94 33.875 160.669C33.875 167.397 36.5517 173.849 41.3163 178.607C46.0809 183.364 52.5431 186.037 59.2812 186.037C66.0194 186.037 72.4816 183.364 77.2462 178.607C82.0108 173.849 84.6875 167.397 84.6875 160.669C84.6875 153.94 82.0108 147.488 77.2462 142.73C72.4816 137.973 66.0194 135.3 59.2812 135.3ZM211.719 135.3C204.981 135.3 198.518 137.973 193.754 142.73C188.989 147.488 186.312 153.94 186.312 160.669C186.312 167.397 188.989 173.849 193.754 178.607C198.518 183.364 204.981 186.037 211.719 186.037C218.457 186.037 224.919 183.364 229.684 178.607C234.448 173.849 237.125 167.397 237.125 160.669C237.125 153.94 234.448 147.488 229.684 142.73C224.919 137.973 218.457 135.3 211.719 135.3Z" fill="#E2EEC9"/>
</svg>
