<svg width="24" height="24" viewBox="0 0 24 24" fill="none" xmlns="http://www.w3.org/2000/svg">
<path d="M21 6.41931C20.326 6.71768 19.611 6.91311 18.879 6.99906C19.6497 6.53757 20.2265 5.8118 20.502 4.95681C19.7772 5.38636 18.9847 5.68968 18.1583 5.85381C17.652 5.31258 16.9946 4.93618 16.2715 4.77358C15.5485 4.61098 14.7932 4.66968 14.104 4.94206C13.4147 5.21444 12.8234 5.6879 12.4068 6.30086C11.9903 6.91383 11.7678 7.63795 11.7682 8.37906C11.7683 8.66931 11.8005 8.95056 11.8658 9.21981C10.3969 9.14751 8.95974 8.76652 7.64796 8.10165C6.33619 7.43678 5.17924 6.50297 4.2525 5.36106C3.92323 5.92469 3.75053 6.56605 3.75225 7.21881C3.75225 8.49906 4.4025 9.63006 5.3955 10.2923C4.80897 10.2737 4.23544 10.1148 3.723 9.82881V9.87606C3.72249 10.7289 4.01732 11.5557 4.55738 12.2158C5.09744 12.8759 5.84942 13.3286 6.6855 13.4971C6.1418 13.6462 5.57109 13.6682 5.0175 13.5616C5.25331 14.2953 5.7124 14.937 6.33066 15.3972C6.94892 15.8573 7.69546 16.1128 8.466 16.1281C7.69998 16.7293 6.82291 17.1736 5.88499 17.4355C4.94706 17.6974 3.9667 17.7717 3 17.6543C4.68789 18.7405 6.65306 19.3173 8.66025 19.3156C15.4537 19.3156 19.1693 13.6876 19.1693 8.80656C19.1693 8.64906 19.1632 8.48706 19.1572 8.32881C19.8792 7.8061 20.503 7.15991 21 6.42006V6.41931Z" fill="#222222"/>
</svg>
