<svg width="46" height="45" viewBox="0 0 46 45" fill="none" xmlns="http://www.w3.org/2000/svg">
<path fill-rule="evenodd" clip-rule="evenodd" d="M15.9688 16.875C15.9688 15.0102 16.7095 13.2218 18.0282 11.9032C19.3468 10.5845 21.1352 9.84375 23 9.84375C24.8648 9.84375 26.6532 10.5845 27.9718 11.9032C29.2905 13.2218 30.0312 15.0102 30.0312 16.875C30.0312 18.7398 29.2905 20.5282 27.9718 21.8468C26.6532 23.1655 24.8648 23.9062 23 23.9062C21.1352 23.9062 19.3468 23.1655 18.0282 21.8468C16.7095 20.5282 15.9688 18.7398 15.9688 16.875ZM23 12.6562C21.8811 12.6562 20.8081 13.1007 20.0169 13.8919C19.2257 14.6831 18.7812 15.7561 18.7812 16.875C18.7812 17.9939 19.2257 19.0669 20.0169 19.8581C20.8081 20.6493 21.8811 21.0938 23 21.0938C24.1189 21.0938 25.1919 20.6493 25.9831 19.8581C26.7743 19.0669 27.2188 17.9939 27.2188 16.875C27.2188 15.7561 26.7743 14.6831 25.9831 13.8919C25.1919 13.1007 24.1189 12.6562 23 12.6562Z" fill="#94CA21"/>
<path fill-rule="evenodd" clip-rule="evenodd" d="M2.84375 22.5C2.84375 11.3681 11.8681 2.34375 23 2.34375C34.1319 2.34375 43.1562 11.3681 43.1562 22.5C43.1562 33.6319 34.1319 42.6562 23 42.6562C11.8681 42.6562 2.84375 33.6319 2.84375 22.5ZM23 5.15625C19.5738 5.15641 16.2244 6.17135 13.3744 8.07301C10.5244 9.97468 8.30148 12.6779 6.98611 15.8415C5.67075 19.0052 5.32188 22.4875 5.98351 25.8492C6.64514 29.2109 8.28763 32.3014 10.7037 34.7306C11.0413 32.9063 11.7069 31.1869 13.04 29.8031C15.0369 27.7331 18.2262 26.7188 23 26.7188C27.7738 26.7188 30.9631 27.7331 32.9581 29.8031C34.2931 31.1869 34.9569 32.9062 35.2962 34.7325C37.713 32.3034 39.3561 29.2128 40.0181 25.8507C40.6801 22.4887 40.3313 19.0059 39.0159 15.8419C37.7005 12.6778 35.4773 9.97436 32.6269 8.0726C29.7765 6.17085 26.4266 5.15604 23 5.15625ZM32.7388 36.8531C32.5475 34.5806 32.0544 32.9156 30.935 31.755C29.7163 30.4931 27.4606 29.5312 23 29.5312C18.5394 29.5312 16.2838 30.4931 15.065 31.755C13.9456 32.9175 13.4525 34.5806 13.2613 36.855C16.133 38.8082 19.527 39.8498 23 39.8438C26.4732 39.8491 29.8672 38.8069 32.7388 36.8531Z" fill="#94CA21"/>
</svg>
