<svg width="24" height="24" viewBox="0 0 24 24" fill="none" xmlns="http://www.w3.org/2000/svg">
<path d="M12 4.5C9.1755 4.5 6.6795 4.7925 5.15625 5.016C3.89625 5.2005 2.88 6.14925 2.64825 7.40625C2.4525 8.47575 2.25 10.0402 2.25 12C2.25 13.9598 2.4525 15.525 2.64825 16.5938C2.88 17.8507 3.89625 18.8025 5.15625 18.9847C6.68625 19.2067 9.1905 19.5 12 19.5C14.8095 19.5 17.3145 19.2075 18.8438 18.984C20.1038 18.8025 21.12 17.8507 21.3517 16.5938C21.5475 15.5212 21.75 13.9537 21.75 12C21.75 10.0462 21.5505 8.47875 21.3517 7.40625C21.12 6.14925 20.1038 5.2005 18.8438 5.01525C17.3205 4.79325 14.8238 4.5 12 4.5ZM12 6C14.7247 6 17.1593 6.27825 18.633 6.492C18.9393 6.53578 19.224 6.67478 19.4469 6.88934C19.6698 7.10389 19.8196 7.38312 19.875 7.6875C20.0565 8.6775 20.25 10.1452 20.25 12C20.25 13.8518 20.0565 15.3225 19.875 16.3125C19.8205 16.6173 19.6711 16.8971 19.448 17.1118C19.2249 17.3265 18.9397 17.4652 18.633 17.508C17.1525 17.7218 14.7067 18 12 18C9.2925 18 6.84375 17.7218 5.367 17.508C5.06056 17.4647 4.77558 17.3258 4.55261 17.1112C4.32963 16.8965 4.18 16.6171 4.125 16.3125C3.9435 15.3225 3.75 13.8577 3.75 12C3.75 10.14 3.9435 8.6775 4.125 7.6875C4.18 7.38293 4.32963 7.10346 4.55261 6.88883C4.77558 6.6742 5.06056 6.53534 5.367 6.492C6.83775 6.27825 9.27525 6 12 6ZM9.75 7.71075V16.29L10.875 15.657L16.125 12.657L17.25 12L16.125 11.3438L10.875 8.34375L9.75 7.71075ZM11.25 10.2892L14.2267 12L11.25 13.7108V10.2892Z" fill="#222222"/>
</svg>
